<svg width="89" height="91" viewBox="0 0 89 91" fill="none" xmlns="http://www.w3.org/2000/svg">
<path d="M35.5566 90.8107C38.1326 86.6408 39.8673 83.0669 40.61 80.2951C41.8393 75.7505 40.5886 74.0181 37.1193 70.3997C31.634 64.7105 24.9753 60.1511 18.9513 55.0578C13.1753 50.1667 5.26596 44.9521 2.23796 37.7233C-4.2807 22.1212 16.0953 8.16109 27.97 3.39134C37.6686 -0.500761 48.2286 -1.20989 59.802 2.13756C83.9286 10.2521 95.2646 27.3992 83.5086 44.7539C76.5153 54.0022 67.6566 61.5842 57.086 67.6549C71.7086 48.3332 78.778 31.8939 70.7286 24.0504C66.9673 20.1812 61.2246 17.6453 54.662 16.6396C44.5873 15.096 26.246 16.9348 20.3846 27.0972C18.2513 30.8073 18.93 34.9744 22.6046 39.6242C33.186 52.6419 45.3953 56.8778 51.774 64.6836C53.0233 66.2151 54.2206 67.7075 54.382 69.119C54.6086 71.0913 53.326 73.2106 51.462 75.6467C46.8393 81.2604 41.386 86.1906 35.5566 90.8107Z" fill="white"/>
</svg>
