<?xml version="1.0" encoding="UTF-8" standalone="no"?>
<!-- Created with Inkscape (http://www.inkscape.org/) -->

<svg
   xmlns:dc="http://purl.org/dc/elements/1.1/"
   xmlns:cc="http://creativecommons.org/ns#"
   xmlns:rdf="http://www.w3.org/1999/02/22-rdf-syntax-ns#"
   xmlns:svg="http://www.w3.org/2000/svg"
   xmlns="http://www.w3.org/2000/svg"
   xmlns:sodipodi="http://sodipodi.sourceforge.net/DTD/sodipodi-0.dtd"
   xmlns:inkscape="http://www.inkscape.org/namespaces/inkscape"
   id="svg2"
   version="1.1"
   inkscape:version="0.91 r13725"
   width="744.47382"
   height="500"
   viewBox="0 0 744.47383 500"
   sodipodi:docname="Logo Banrisulo.svg">
  <metadata
     id="metadata8">
    <rdf:RDF>
      <cc:Work
         rdf:about="">
        <dc:format>image/svg+xml</dc:format>
        <dc:type
           rdf:resource="http://purl.org/dc/dcmitype/StillImage" />
        <dc:title></dc:title>
      </cc:Work>
    </rdf:RDF>
  </metadata>
  <defs
     id="defs6" />

  <text
     xml:space="preserve"
     style="font-style:normal;font-weight:normal;font-size:40px;line-height:125%;font-family:sans-serif;letter-spacing:0px;word-spacing:0px;fill:#000000;fill-opacity:1;stroke:none;stroke-width:1px;stroke-linecap:butt;stroke-linejoin:miter;stroke-opacity:1"
     x="924.23486"
     y="281.65887"
     id="text4191"
     sodipodi:linespacing="125%"><tspan
       sodipodi:role="line"
       id="tspan4193"
       x="924.23486"
       y="281.65887" /></text>
  <g
     id="g4167"
     transform="translate(203.7073,201.06096)">

    <path
       sodipodi:nodetypes="cccccccccccc"
       inkscape:connector-curvature="0"
       id="path4140"
       d="m 3.9494342,-61.599448 46.1940958,-0.650599 28.193584,41.639747 5.421839,-0.216891 0.433782,1.951863 52.483435,0.650599 21.4705,31.880435 c 1.55452,2.868579 4.36344,5.616606 2.59136,9.759312 L 59.252296,23.631909 C 59.459041,17.825167 58.098811,13.97706 55.999189,11.053236 L 10.021962,-57.695728 Z"
       style="fill:#FFF;fill-opacity:1;fill-rule:evenodd;stroke:#FFF;stroke-width:0.7515291;stroke-linecap:butt;stroke-linejoin:miter;stroke-miterlimit:4;stroke-dasharray:none;stroke-opacity:1" />
    <path
       sodipodi:nodetypes="ccccccccc"
       inkscape:connector-curvature="0"
       id="path4142"
       d="m 160.31537,24.065662 -49.66408,78.508288 c -1.12682,2.57725 -2.86918,2.69234 -4.55435,3.03623 L 1.9975704,104.95958 3.0819367,102.35709 9.5881495,101.92331 57.51724,30.138115 c 1.725631,-4.056807 1.444289,-4.76867 1.518112,-6.072468 z"
       style="fill:#FFF;fill-opacity:1;fill-rule:evenodd;stroke:#FFF;stroke-width:0.7515291;stroke-linecap:butt;stroke-linejoin:miter;stroke-miterlimit:4;stroke-dasharray:none;stroke-opacity:1" />
    <path
       sodipodi:nodetypes="ccccccccc"
       inkscape:connector-curvature="0"
       id="path4142-2"
       d="m 316.97856,23.933663 -49.66408,78.508287 c -1.12682,2.57725 -2.86918,2.69234 -4.55434,3.03623 l -104.09938,-0.6506 1.08437,-2.60249 6.50621,-0.43378 47.92909,-71.785194 c 1.72563,-4.056807 1.44429,-4.76867 1.51811,-6.072468 z"
       style="fill:#FFF;fill-opacity:1;fill-rule:evenodd;stroke:#FFF;stroke-width:0.7515291;stroke-linecap:butt;stroke-linejoin:miter;stroke-miterlimit:4;stroke-dasharray:none;stroke-opacity:1" />
    <path
       sodipodi:nodetypes="ccccccccc"
       inkscape:connector-curvature="0"
       id="path4140-9"
       d="m 206.77401,-62.408229 55.95141,1.337512 c 13.63956,20.294502 13.8913,20.296065 30.58122,42.687806 l 21.47051,31.880435 c 1.55451,2.86858 4.36343,5.616606 2.59136,9.759312 l -101.48574,0.216891 c 0.20675,-5.806742 -1.15348,-9.654849 -3.2531,-12.578673 -16.83819,-23.183222 -31.524,-44.214072 -50.51457,-69.549673 13.57291,-5.468156 30.04593,-3.224143 44.65891,-3.75361 z"
       style="fill:#FFF;fill-opacity:1;fill-rule:evenodd;stroke:#FFF;stroke-width:0.7515291;stroke-linecap:butt;stroke-linejoin:miter;stroke-miterlimit:4;stroke-dasharray:none;stroke-opacity:1" />
    <path
       sodipodi:nodetypes="ccccccccc"
       inkscape:connector-curvature="0"
       id="path4140-9-2"
       d="m 131.83869,-185.3884 55.13989,1.33761 c 13.44174,20.29596 13.68982,20.29752 30.13768,42.69088 l 21.1591,31.88274 c 1.53196,2.86878 4.30015,5.61701 2.55377,9.760016 l -100.01379,0.216891 c 0.20374,-5.807167 -1.13675,-9.655547 -3.20592,-12.579587 -16.59398,-23.18489 -31.06678,-44.21726 -49.781907,-69.55469 13.376037,-5.46855 29.610147,-3.22437 44.011177,-3.75388 z"
       style="fill:#FFF;fill-opacity:1;fill-rule:evenodd;stroke:#FFF;stroke-width:0.74608606;stroke-linecap:butt;stroke-linejoin:miter;stroke-miterlimit:4;stroke-dasharray:none;stroke-opacity:1" />
    <path
       sodipodi:nodetypes="ccccccccc"
       inkscape:connector-curvature="0"
       id="path4189"
       d="m 240.37435,-99.005471 -23.1113,36.284373 c -18.67744,1.252386 -47.52158,-2.116456 -55.49375,4.00196 l -25.11227,39.715419 -51.89199,-0.529602 -0.233425,-1.267326 c 1.424636,-0.171875 2.410018,-0.340218 3.468374,-0.700275 l 52.625691,-77.204381 z"
       style="fill:#FFF;fill-opacity:1;fill-rule:evenodd;stroke:#FFF;stroke-width:0.7515291;stroke-linecap:butt;stroke-linejoin:miter;stroke-miterlimit:4;stroke-dasharray:none;stroke-opacity:1" />
    <path
       d="m -191.99552,143.89565 51.96317,0 q 15.42933,0 22.96665,1.48125 7.626,1.3825 13.56718,5.92499 6.029848,4.5425 10.020196,12.14622 3.990342,7.50499 3.990342,16.88623 0,10.17122 -4.965759,18.66371 -4.877093,8.49248 -13.301159,12.73873 11.88237,3.85124 18.266918,13.13372 6.384548,9.28249 6.384548,21.82371 0,9.87498 -4.167695,19.25621 -4.079014,9.28249 -11.261633,14.91122 -7.093948,5.53 -17.557528,6.81374 -6.56189,0.78998 -31.65673,0.9875 l -44.2485,0 0,-144.76723 z m 26.24761,24.09496 0,33.47618 17.20283,0 q 15.34066,0 19.06497,-0.49375 6.73925,-0.88874 10.55225,-5.13498 3.90167,-4.345 3.90167,-11.35623 0,-6.71499 -3.36963,-10.86248 -3.28095,-4.24625 -9.84284,-5.135 -3.90167,-0.49375 -22.43461,-0.49375 l -15.07464,0 z m 0,57.57114 0,38.70992 24.29677,0 q 14.18789,0 18.00089,-0.88874 5.8525,-1.185 9.48815,-5.72749 3.72432,-4.64124 3.72432,-12.34372 0,-6.51749 -2.83757,-11.05999 -2.83758,-4.54249 -8.24672,-6.61623 -5.32046,-2.07375 -23.23267,-2.07375 l -21.19317,0 z"
       style="font-style:normal;font-variant:normal;font-weight:bold;font-stretch:normal;font-size:25.50065041px;line-height:125%;font-family:Arial;-inkscape-font-specification:'Arial, Bold';text-align:start;letter-spacing:0px;word-spacing:0px;writing-mode:lr-tb;text-anchor:start;fill:#FFF;fill-opacity:1;stroke:none;stroke-width:1px;stroke-linecap:butt;stroke-linejoin:miter;stroke-opacity:1"
       id="path4449"
       inkscape:connector-curvature="0" />
    <path
       d="m -2.9814677,258.0305 0,-23.10698 q -6.1033481,0.5925 -13.2099953,1.67871 -7.106639,0.98749 -10.785374,2.36995 -4.514811,1.67872 -6.939424,4.93738 -2.341013,3.15993 -2.341013,8.39356 0,3.45617 0.50172,5.62862 0.501721,2.17245 2.508229,4.14741 1.922975,1.97495 4.598418,2.96244 2.675444,0.88872 8.360754,0.88872 4.514803,0 9.113222,-2.17245 4.6820263,-2.17245 8.193546,-5.72736 z m 0,17.1821 q -2.4246132,2.17245 -6.0197404,5.23363 -3.5951269,3.06118 -6.7722169,4.83863 -4.431203,2.36995 -9.196822,3.45617 -4.765641,1.18498 -10.450951,1.18498 -13.377211,0 -22.406833,-9.77603 -9.029614,-9.77602 -9.029614,-24.98317 0,-12.14597 4.598411,-19.8483 4.598419,-7.70232 13.042787,-12.14597 8.360746,-4.44365 20.734673,-6.31986 12.373919,-1.8762 25.6675291,-2.76492 l 0,-0.59251 q 0,-9.18354 -6.3541785,-12.6397 -6.3541786,-3.55493 -18.7280896,-3.55493 -7.441078,0 -15.885446,3.15993 -8.444354,3.06118 -12.123097,4.73989 l -2.759051,0 0,-26.76063 q 4.765634,-1.48122 15.467408,-3.45616 10.785367,-2.07371 21.570749,-2.07371 25.6675217,0 37.038149,9.38103 11.454243,9.28229 11.454243,29.22934 l 0,75.44326 -29.8479097,0 0,-11.75098 z"
       style="font-style:normal;font-variant:normal;font-weight:bold;font-stretch:normal;font-size:25.50011253px;line-height:125%;font-family:sans-serif;-inkscape-font-specification:'sans-serif, Bold';text-align:start;letter-spacing:0px;word-spacing:0px;writing-mode:lr-tb;text-anchor:start;fill:#FFF;fill-opacity:1;stroke:none;stroke-width:1px;stroke-linecap:butt;stroke-linejoin:miter;stroke-opacity:1"
       id="path4451"
       inkscape:connector-curvature="0" />
    <path
       d="m 134.58429,287.53337 -26.15362,0 0,-53.5224 q 0,-16.98496 -1.67533,-21.92245 -1.67531,-5.03625 -5.49132,-7.80124 -3.722941,-2.76499 -9.028127,-2.76499 -6.794364,0 -12.192613,3.94998 -5.398256,3.95 -7.445872,10.46749 -1.954554,6.51748 -1.954554,24.09495 l 0,47.49866 -26.153618,0 0,-104.87231 24.292155,0 0,15.40498 q 12.937205,-17.77497 32.575699,-17.77497 8.65583,0 15.82247,3.3575 7.16666,3.25874 10.79652,8.39373 3.72294,5.13499 5.11904,11.65248 1.48917,6.51749 1.48917,18.66371 l 0,65.17488 z"
       style="font-style:normal;font-variant:normal;font-weight:bold;font-stretch:normal;font-size:25.50065041px;line-height:125%;font-family:Arial;-inkscape-font-specification:'Arial, Bold';text-align:start;letter-spacing:0px;word-spacing:0px;writing-mode:lr-tb;text-anchor:start;fill:#FFF;fill-opacity:1;stroke:none;stroke-width:1px;stroke-linecap:butt;stroke-linejoin:miter;stroke-opacity:1"
       id="path4453"
       inkscape:connector-curvature="0" />
    <path
       d="m 185.85758,286.68372 -28.39593,0 0,-104.87231 26.37488,0 0,14.91123 q 6.77055,-10.56623 12.12637,-13.92372 5.45687,-3.3575 12.32848,-3.3575 9.7011,0 18.69483,5.23374 l -8.79163,24.19371 q -7.17476,-4.54249 -13.33901,-4.54249 -5.96214,0 -10.10532,3.25874 -4.14317,3.16 -6.56844,11.55373 -2.32423,8.39373 -2.32423,35.15493 l 0,32.38994 z"
       style="font-style:normal;font-variant:normal;font-weight:bold;font-stretch:normal;font-size:25.50065041px;line-height:125%;font-family:Arial;-inkscape-font-specification:'Arial, Bold';text-align:start;letter-spacing:0px;word-spacing:0px;writing-mode:lr-tb;text-anchor:start;fill:#FFF;fill-opacity:1;stroke:none;stroke-width:1px;stroke-linecap:butt;stroke-linejoin:miter;stroke-opacity:1"
       id="path4455"
       inkscape:connector-curvature="0" />
    <path
       d="m 285.88773,255.76792 25.00616,-4.24624 q 1.59614,8.09748 6.47322,12.34373 4.87709,4.14748 13.65585,4.14748 9.6655,0 14.54259,-3.94999 3.28095,-2.765 3.28095,-7.40624 0,-3.15999 -1.77349,-5.23374 -1.86216,-1.97499 -8.33539,-3.65373 -30.14926,-7.40625 -38.21863,-13.52873 -11.17296,-8.49248 -11.17296,-23.60121 0,-13.62748 9.66549,-22.90996 9.6655,-9.28248 29.97193,-9.28248 19.33101,0 28.73048,7.01123 9.39948,7.01124 12.94646,20.73747 l -23.4987,4.83874 q -1.50746,-6.12248 -5.76384,-9.38123 -4.16769,-3.25875 -11.97103,-3.25875 -9.84285,0 -14.09922,3.06124 -2.83757,2.1725 -2.83757,5.62875 0,2.96249 2.48287,5.03623 3.36963,2.76501 23.23268,7.80124 19.95173,5.03625 27.84374,12.34373 7.80334,7.40624 7.80334,20.63871 0,14.41747 -10.81826,24.78621 -10.81828,10.36873 -32.01144,10.36873 -19.24233,0 -30.50397,-8.68998 -11.17296,-8.68999 -14.63126,-23.60121 z"
       style="font-style:normal;font-variant:normal;font-weight:bold;font-stretch:normal;font-size:25.50065041px;line-height:125%;font-family:Arial;-inkscape-font-specification:'Arial, Bold';text-align:start;letter-spacing:0px;word-spacing:0px;writing-mode:lr-tb;text-anchor:start;fill:#FFF;fill-opacity:1;stroke:none;stroke-width:1px;stroke-linecap:butt;stroke-linejoin:miter;stroke-opacity:1"
       id="path4459"
       inkscape:connector-curvature="0" />
    <path
       d="m 456.20455,287.67833 0,-15.70122 q -5.48396,8.39374 -14.46646,13.23248 -8.88785,4.83874 -18.8158,4.83874 -10.11706,0 -18.15397,-4.64124 -8.03691,-4.64124 -11.62988,-13.03498 -3.59298,-8.39373 -3.59298,-23.20621 l 0,-66.35987 26.56909,0 0,48.18991 q 0,22.11996 1.41827,27.1562 1.51284,4.93749 5.38947,7.89998 3.87662,2.86375 9.83339,2.86375 6.80775,0 12.19717,-3.85124 5.38949,-3.95 7.37508,-9.67749 1.98558,-5.82623 1.98558,-28.3412 l 0,-44.23991 26.56914,0 0,104.8723 -24.6781,0 z"
       style="font-style:normal;font-variant:normal;font-weight:bold;font-stretch:normal;font-size:25.50065041px;line-height:125%;font-family:Arial;-inkscape-font-specification:'Arial, Bold';text-align:start;letter-spacing:0px;word-spacing:0px;writing-mode:lr-tb;text-anchor:start;fill:#FFF;fill-opacity:1;stroke:none;stroke-width:1px;stroke-linecap:butt;stroke-linejoin:miter;stroke-opacity:1"
       id="path4461"
       inkscape:connector-curvature="0" />
    <path
       d="m 502.51725,287.67833 0,-144.76723 24.91748,0 0,144.76723 -24.91748,0 z"
       style="font-style:normal;font-variant:normal;font-weight:bold;font-stretch:normal;font-size:25.50065041px;line-height:125%;font-family:Arial;-inkscape-font-specification:'Arial, Bold';text-align:start;letter-spacing:0px;word-spacing:0px;writing-mode:lr-tb;text-anchor:start;fill:#FFF;fill-opacity:1;stroke:none;stroke-width:1px;stroke-linecap:butt;stroke-linejoin:miter;stroke-opacity:1"
       id="path4463"
       inkscape:connector-curvature="0" />
    <ellipse
       ry="18.964802"
       rx="16.310944"
       cy="150.32632"
       cx="256.13962"
       id="path4473"
       style="opacity:1;fill:#FFF;fill-opacity:1;fill-rule:evenodd;stroke:#FFF;stroke-width:0.7766757;stroke-linecap:round;stroke-linejoin:round;stroke-miterlimit:4;stroke-dasharray:none;stroke-opacity:1" />
    <rect
       y="178.15872"
       x="241.25627"
       height="109.85228"
       width="31.386364"
       id="rect4475"
       style="opacity:1;fill:#FFF;fill-opacity:1;fill-rule:evenodd;stroke:#FFF;stroke-width:0.7515291;stroke-linecap:round;stroke-linejoin:round;stroke-miterlimit:4;stroke-dasharray:none;stroke-opacity:1" />
  </g>
</svg>
