<svg width="308" height="184" viewBox="0 0 308 184" fill="none" xmlns="http://www.w3.org/2000/svg">
<path fill-rule="evenodd" clip-rule="evenodd" d="M221.662 167.488H229.141C237.987 167.488 239.022 160.901 239.022 152.048V144.481C239.022 140.579 238.967 136.485 237.739 133.671C236.641 131.153 233.838 128.435 230.638 128.435H221.662V167.488ZM204.593 182.626H233.634C237.05 182.626 242.146 180.742 244.894 178.869C247.275 177.251 248.418 176.104 250.337 174.078C253.149 171.105 255.799 164.462 255.799 158.706V138.728C255.799 130.961 253.774 125.934 250.174 121.701C248.073 119.223 245.477 117.179 242.599 115.686C239.151 113.906 235.509 112.995 231.662 112.995H204.593V182.626Z" fill="#FFF"/>
<path fill-rule="evenodd" clip-rule="evenodd" d="M30.6317 83.0238C30.6317 85.8778 31.0304 88.8087 31.9144 91.3499C32.6571 93.4719 33.7357 95.3256 35.2011 96.6495C38.1957 99.3485 44.5104 99.5966 47.7971 97.2252C49.5317 95.9741 50.8037 94.0476 51.6331 91.78C54.5971 83.683 52.8944 68.186 41.7197 68.186H41.4077C34.4677 68.186 30.6317 75.6265 30.6317 83.0238ZM30.9331 64.5555V58.8016L18.3584 66.9781V135.697H31.2357V102.397C32.2477 103.582 33.2824 104.729 34.4144 105.756C39.9637 110.775 49.7371 111.552 55.9757 107.34C58.4011 105.701 60.4157 103.553 61.6544 101.671C64.4237 97.4692 66.2664 91.4268 66.2664 84.5364C66.2664 70.4118 59.2731 57.5923 45.6104 57.5923C36.9891 57.5923 34.7584 60.5987 30.9331 64.5555Z" fill="#FFF"/>
<path fill-rule="evenodd" clip-rule="evenodd" d="M307.588 182.626V167.488H277.954V155.075H303.406V139.938H277.954V128.435H307.889V113.298H261.188V182.626H307.588Z" fill="#FFF"/>
<path fill-rule="evenodd" clip-rule="evenodd" d="M109.768 158.029L121.653 158.102L115.705 140.253L109.768 158.029ZM84.2295 182.626H100.996L104.887 172.333H125.555L129.143 182.626L146.965 182.566L122.257 113.297H109.681L84.2295 182.626Z" fill="#FFF"/>
<path fill-rule="evenodd" clip-rule="evenodd" d="M146.513 161.431C146.632 166.819 149.993 172.15 152.656 175.201C154.067 176.829 156.352 178.508 158.184 179.594C165.92 184.165 175.856 184.432 184.035 180.909C186.308 179.932 188.959 178.008 190.748 176.493C192.579 174.929 194.283 172.363 195.511 170.108C197.417 166.615 198.312 162.943 198.312 159.024V113.298H181.545V157.799C181.545 160.559 180.715 163.184 179.508 164.825C178.711 165.898 175.112 168.093 173.755 168.093H171.363C167.171 168.093 163.377 163.979 163.269 159.617V112.995H146.201L146.513 161.431Z" fill="#FFF"/>
<path fill-rule="evenodd" clip-rule="evenodd" d="M36.9247 134.186C36.9247 142.607 40.61 150.883 49.6834 153.379C53.6274 154.464 56.418 154.735 60.7607 155.5C63.9927 156.072 69.5647 156.397 69.5647 159.918V162.341C69.5647 164.114 68.6047 165.543 67.2367 166.491C66.4927 167 65.6314 167.371 64.7367 167.584C58.7674 168.99 51.7514 167.217 46.4287 164.54C45.75 164.2 45.038 163.829 44.2847 163.424L33.9287 174.145C42.054 182.064 56.6767 185.068 67.8394 182.505C77.8607 180.207 86.3207 172.638 86.3207 162.341V158.706C86.3207 155.426 84.294 149.996 82.818 148.029C77.4954 140.967 67.118 140.639 62.538 139.766C60.1034 139.195 57.0314 139.003 55.1354 137.778C52.3554 135.973 53.1954 131.685 55.254 129.709C56.838 128.191 59.0687 127.456 61.2127 127.326C64.0794 127.153 67.5274 127.69 69.3487 128.333C70.2647 128.655 71.0514 129.074 71.87 129.593C72.7314 130.132 73.6154 130.781 74.726 131.537L85.1247 120.867C83.7234 118.736 78.346 115.599 75.362 114.696C71.762 113.603 69.3914 113.034 65.8674 112.81C60.782 112.484 55.4154 112.462 50.642 114.441C42.786 117.692 36.9247 125.163 36.9247 134.186Z" fill="#FFF"/>
<path fill-rule="evenodd" clip-rule="evenodd" d="M80.9322 78.7833H100.996C100.996 72.6856 97.0856 67.8862 91.1149 67.8862C85.2749 67.8862 81.0616 73.055 80.9322 78.7833ZM67.4629 80.6006V81.8099C67.4629 95.406 72.0962 106.18 82.8829 109.15C88.8736 110.8 97.7962 110.542 103.227 107.564C108.636 104.598 112.635 99.2805 113.874 93.9203H100.404C100.124 97.2057 95.3936 99.6715 91.7189 99.6715H90.8136C84.8656 99.6715 80.6416 93.6102 80.6416 87.2618H114.466V84.8405C114.466 77.1062 112.667 70.8602 109.628 66.1228C107.936 63.498 104.552 60.5509 100.652 58.8981C99.8216 58.5436 98.9602 58.2483 98.0976 58.0326C93.8949 56.9743 87.3442 57.0835 83.2162 58.3144C81.9882 58.6811 80.8029 59.1758 79.6709 59.7852C72.5269 63.6396 67.4629 72.0291 67.4629 80.6006Z" fill="#FFF"/>
<path fill-rule="evenodd" clip-rule="evenodd" d="M1.89307 68.1864V108.755H14.7704V67.5824C9.8784 71.2278 5.94507 70.0428 1.89307 68.1864Z" fill="#FFF"/>
<path fill-rule="evenodd" clip-rule="evenodd" d="M166.804 106.317L175.845 106.333L187.525 88.7748L171.48 88.8086L166.804 106.317Z" fill="#FFF"/>
<path d="M121.557 90.8107C124.133 86.6408 125.867 83.0669 126.61 80.2951C127.839 75.7505 126.589 74.0181 123.119 70.3997C117.634 64.7105 110.975 60.1511 104.951 55.0578C99.1753 50.1667 91.266 44.9521 88.238 37.7233C81.7193 22.1212 102.095 8.16109 113.97 3.39134C123.669 -0.500761 134.229 -1.20989 145.802 2.13756C169.929 10.2521 181.265 27.3992 169.509 44.7539C162.515 54.0022 153.657 61.5842 143.086 67.6549C157.709 48.3332 164.778 31.8939 156.729 24.0504C152.967 20.1812 147.225 17.6453 140.662 16.6396C130.587 15.096 112.246 16.9348 106.385 27.0972C104.251 30.8073 104.93 34.9744 108.605 39.6242C119.186 52.6419 131.395 56.8778 137.774 64.6836C139.023 66.2151 140.221 67.7075 140.382 69.119C140.609 71.0913 139.326 73.2106 137.462 75.6467C132.839 81.2604 127.386 86.1906 121.557 90.8107Z" fill="#FFF"/>
<path d="M8.0459 51.01C12.4966 51.01 16.0952 54.6554 16.0952 59.1488C16.0952 62.4396 14.1339 65.4082 11.1272 66.6688C8.1219 67.9293 4.65123 67.2336 2.35656 64.904C0.0498956 62.5771 -0.628771 59.076 0.611229 56.0359C1.86056 52.9918 4.79123 51.01 8.0459 51.01Z" fill="#FFF"/>
</svg>
